<?xml version="1.0" standalone="no"?><!DOCTYPE svg PUBLIC "-//W3C//DTD SVG 1.1//EN" "http://www.w3.org/Graphics/SVG/1.1/DTD/svg11.dtd"><svg t="1688450504171" class="icon" viewBox="0 0 1024 1024" version="1.1" xmlns="http://www.w3.org/2000/svg" p-id="1906" xmlns:xlink="http://www.w3.org/1999/xlink" width="200" height="200"><path d="M131.657143 658.285714c-36.571429 0-58.514286-21.942857-58.514286-51.2V409.6c0-29.257143 21.942857-51.2 58.514286-51.2 29.257143 0 58.514286 21.942857 65.828571 43.885714v204.8c-7.314286 29.257143-36.571429 51.2-65.828571 51.2z m0 0" fill="#FA4A26" p-id="1907"></path><path d="M373.028571 811.885714c-36.571429 0-65.828571-21.942857-65.828571-51.2V256c0-29.257143 21.942857-51.2 58.514286-51.2 29.257143 0 58.514286 21.942857 65.828571 43.885714v512c0 29.257143-29.257143 51.2-58.514286 51.2z" fill="#FAE711" p-id="1908"></path><path d="M848.457143 658.285714c-36.571429 0-65.828571-21.942857-65.828572-51.2V409.6c0-29.257143 21.942857-58.514286 58.514286-58.514286s65.828571 21.942857 65.828572 51.2v204.8c7.314286 29.257143-21.942857 51.2-58.514286 51.2z" fill="#2EAC2A" p-id="1909"></path><path d="M614.4 1016.685714c-36.571429 0-65.828571-21.942857-65.828571-51.2V58.514286c0-29.257143 29.257143-58.514286 65.828571-58.514286s65.828571 21.942857 65.828571 51.2v914.285714c0 29.257143-29.257143 51.2-65.828571 51.2z" fill="#3894EA" p-id="1910"></path></svg>